<?xml version="1.0" encoding="utf-8"?>
<!-- Generator: Adobe Illustrator 19.1.0, SVG Export Plug-In . SVG Version: 6.00 Build 0)  -->
<svg version="1.1" xmlns="http://www.w3.org/2000/svg" xmlns:xlink="http://www.w3.org/1999/xlink" x="0px" y="0px"
	 viewBox="0 0 150 150" style="enable-background:new 0 0 150 150;" xml:space="preserve">
<style type="text/css">
	.st0{fill:#FFFFFF;}
</style>
<g id="Layer_1">
	
		<rect x="32.9" y="46.1" transform="matrix(0.7071 -0.7071 0.7071 0.7071 -40.5313 79.1692)" class="st0" width="84.9" height="84.9"/>
	<path class="st0" d="M75,88L75,88c-16.6,16.6-43.4,16.6-60,0l0,0C-1.6,71.5-1.6,44.6,15,28l0,0c16.6-16.6,43.4-16.6,60,0l0,0
		C91.6,44.6,91.6,71.5,75,88z"/>
	<path class="st0" d="M135.7,88L135.7,88c-16.6,16.6-43.4,16.6-60,0l0,0c-16.6-16.6-16.6-43.4,0-60l0,0c16.6-16.6,43.4-16.6,60,0
		l0,0C152.3,44.6,152.3,71.5,135.7,88z"/>
</g>
<g id="Layer_2">
</g>
</svg>
