<?xml version="1.0" encoding="utf-8"?>
<!-- Generator: Adobe Illustrator 19.1.0, SVG Export Plug-In . SVG Version: 6.00 Build 0)  -->
<svg version="1.1" id="Layer_1" xmlns="http://www.w3.org/2000/svg" xmlns:xlink="http://www.w3.org/1999/xlink" x="0px" y="0px"
	 viewBox="0 0 145 60" style="enable-background:new 0 0 145 60;" xml:space="preserve">
<style type="text/css">
	.st0{fill:#FFFFFF;}
</style>
<g>
	<path class="st0" d="M28.6,15.7c2.6,2.8,3.9,6.8,3.9,12.1c0,5.6-1.3,9.9-3.8,12.9c-2.5,2.9-5.8,4.4-9.8,4.4c-2.6,0-4.6-0.6-6.3-1.9
		c-0.9-0.7-1.6-1.7-2.6-3.1v17.5h0c-4.6,0-8-4.6-8-9.1V13h8v4c1-1.4,1.6-2.5,2.7-3.3c1.9-1.4,4-2.1,6.5-2.1C23,11.6,26,13,28.6,15.7
		z M22.2,21.7c-1.1-1.9-3-2.8-5.5-2.8c-3.1,0-5.2,1.4-6.3,4.3c-0.6,1.5-0.9,3.5-0.9,5.8c0,3.7,1,6.3,3,7.8c1.2,0.9,2.6,1.3,4.2,1.3
		c2.3,0,4.1-0.9,5.4-2.7c1.2-1.8,1.9-4.2,1.9-7.2C23.9,25.8,23.3,23.6,22.2,21.7z"/>
	<path class="st0" d="M42,6.1c0,2.1-1.7,3.9-3.9,3.9h-0.3C35.7,10,34,8.3,34,6.1V5.9C34,3.7,35.7,2,37.9,2h0.3C40.3,2,42,3.7,42,5.9
		V6.1z M34,13h9v32h-9V13z"/>
	<path class="st0" d="M72.6,14.1c2.1,1.7,3.4,4.6,3.4,8.6V45h-9V24.8c0-1.7-0.2-3-0.7-3.9c-0.8-1.6-2.4-2.5-4.6-2.5
		c-2.8,0-4.8,1.2-5.8,3.6C55.3,23.3,55,25,55,26.9V45h-8V13h8v4c1-1.6,2-2.8,2.9-3.5c1.7-1.3,3.9-1.9,6.6-1.9
		C67.8,11.5,70.6,12.4,72.6,14.1z"/>
	<path class="st0" d="M96.2,12.8c1.5,0.8,2.8,2,3.8,3.5V2h8v43h-8v-5.2c-1,1.9-2.5,3.3-4,4.1s-3.4,1.3-5.7,1.3
		c-3.7,0-6.9-1.5-9.4-4.5s-3.8-6.9-3.8-11.6c0-5.4,1.3-9.7,3.8-12.9c2.5-3.1,5.9-4.7,10.1-4.7C92.9,11.5,94.7,11.9,96.2,12.8z
		 M98.1,35.5c1.2-1.8,1.8-4,1.8-6.8c0-3.9-1-6.7-3-8.4c-1.2-1-2.6-1.5-4.2-1.5c-2.4,0-4.2,0.9-5.4,2.8s-1.7,4.1-1.7,6.9
		c0,2.9,0.6,5.3,1.7,7.1c1.2,1.8,2.9,2.7,5.3,2.7C95.1,38.2,96.9,37.3,98.1,35.5z"/>
	<path class="st0" d="M120,45h-8V2h-0.3c4.6,0,8.3,2.8,8.3,7.4V45z"/>
	<path class="st0" d="M142,11.5c0.1,0,0,0,1,0v8.6c-1-0.1-1.2-0.1-1.6-0.1c-0.4,0-0.9,0-1.1,0c-3.4,0-5.4,1.1-6.5,3.3
		c-0.6,1.2-0.7,3.1-0.7,5.7v16h-9V13h8v4.9c1-2.1,2.4-3.6,3.3-4.4c1.6-1.3,3.7-2,6.2-2C141.7,11.5,141.9,11.5,142,11.5z"/>
</g>
</svg>
