<?xml version="1.0" encoding="utf-8"?>
<!-- Generator: Adobe Illustrator 19.1.0, SVG Export Plug-In . SVG Version: 6.00 Build 0)  -->
<svg version="1.1" id="Layer_1" xmlns="http://www.w3.org/2000/svg" xmlns:xlink="http://www.w3.org/1999/xlink" x="0px" y="0px"
	 viewBox="0 0 40 40" style="enable-background:new 0 0 40 40;" xml:space="preserve">
<style type="text/css">
	.st0{fill:#FFFFFF;}
</style>
<g>
	<path class="st0" d="M32,6c0-2.8-2.3-5-5-5H12C9.3,1,7,3.3,7,6V26c0,2.8,2.3,5,5,5H27c2.8,0,5-2.3,5-5V6z M26.1,29.2
		c-1.6,0-2.9-1.3-2.9-2.9s1.3-2.9,2.9-2.9s2.9,1.3,2.9,2.9S27.7,29.2,26.1,29.2z M17.6,3h3.9c0.8,0,1.4,0.7,1.4,1.5
		c0,0.8-0.6,1.5-1.4,1.5h-3.9c-0.8,0-1.4-0.7-1.4-1.5C16.1,3.7,16.8,3,17.6,3z M29,18.1c0,1.1-0.9,1.9-1.9,1.9H11.9
		c-1.1,0-1.9-0.9-1.9-1.9V9.9C10,8.9,10.9,8,11.9,8h15.1C28.1,8,29,8.9,29,9.9V18.1z M13.1,23.3c1.6,0,2.9,1.3,2.9,2.9
		s-1.3,2.9-2.9,2.9s-2.9-1.3-2.9-2.9S11.4,23.3,13.1,23.3z"/>
	<g>
		<path class="st0" d="M27.8,31.2c-0.2-0.3-0.5-0.4-0.8-0.4h-1.6l0.7,1h-13l0.7-1h-1.6c-0.3,0-0.6,0.1-0.8,0.4l-4.5,6
			c-0.5,0.7,0,1.6,0.8,1.6H8c0.3,0,0.7-0.2,0.8-0.5l0.7-1.1c0.2-0.3,0.5-0.5,0.8-0.5h18.7c0.3,0,0.7,0.2,0.8,0.5l0.7,1.1
			c0.2,0.3,0.5,0.5,0.8,0.5h0.1c0.8,0,1.3-0.9,0.8-1.6L27.8,31.2z M11.1,34.8l0.6-0.7c0.2-0.2,0.5-0.3,0.7-0.3H27
			c0.3,0,0.6,0.1,0.7,0.3l0.6,0.7H11.1z"/>
	</g>
</g>
</svg>
